<?xml version="1.0" encoding="utf-8"?>
<!-- Generator: Adobe Illustrator 16.0.0, SVG Export Plug-In . SVG Version: 6.00 Build 0)  -->
<!DOCTYPE svg PUBLIC "-//W3C//DTD SVG 1.1//EN" "http://www.w3.org/Graphics/SVG/1.1/DTD/svg11.dtd">
<svg version="1.1" id="Layer_1" xmlns="http://www.w3.org/2000/svg" xmlns:xlink="http://www.w3.org/1999/xlink" x="0px" y="0px"
	 width="410.979px" height="212.989px" viewBox="0 0 410.979 212.989" enable-background="new 0 0 410.979 212.989"
	 xml:space="preserve">
<g>
	<path fill="#0B3842" stroke="#FFFFFF" stroke-miterlimit="10" d="M399.102,155.374c-6.33,6.622-14.165,10.452-23.085,11.975
		c-11.141,1.903-21.244-0.904-30.561-7.169c-7.223-4.857-15.262-5.353-23.373-3.111c-3.408,0.942-6.546,3.019-9.665,4.823
		c-14.114,8.168-28.24,8.297-42.211-0.104c-6.022-3.622-12.15-6.749-19.321-5.7c-4.348,0.638-9.22,1.332-12.688,3.707
		c-14.053,9.624-29.034,9.595-44.551,5.519c-35.044-9.206-59.306-41.308-58.315-76.922c1.014-36.454,26.5-67.607,62.359-74.352
		c32.117-6.04,58.487,4.68,78.45,30.679c3.419,4.454,3.353,7.944,0.216,10.085c-3.051,2.082-6.077,0.962-9.239-3.417
		c-29.326-40.623-90.937-35.738-113.468,8.996c-22.033,43.743,10.029,96.043,58.994,96.339c7.366,0.045,13.502-2.896,19.532-6.63
		c10.218-6.328,21.247-6.848,32.466-3.521c3.76,1.115,7.291,3.241,10.687,5.3c10.64,6.453,21.319,6.744,31.754-0.01
		c11.089-7.177,22.867-9.18,35.394-5.354c4.339,1.325,8.323,3.914,12.347,6.148c9.769,5.426,19.473,5.47,29.204,0.003
		c1.523-0.856,3.006-1.783,4.518-2.661c5.109-2.971,6.845-2.7,10.558,1.627C399.102,152.875,399.102,154.124,399.102,155.374z"/>
	<path fill="#0B3842" stroke="#FFFFFF" stroke-miterlimit="10" d="M399.102,125.378c-6.493,6.612-14.394,10.59-23.491,11.969
		c-10.127,1.533-19.599-0.413-28.253-6.092c-11.316-7.426-22.572-7.204-34.049-0.03c-14.917,9.325-29.927,8.922-44.778-0.414
		c-10.778-6.775-21.963-7.318-32.363,0.009c-23.952,16.876-63.807,2.512-70.1-32.788c-3.888-21.805,8.502-43.758,29.053-52.103
		c20.887-8.48,44.701-1.307,57.352,17.287c0.631,0.927,1.352,1.846,1.736,2.878c1.022,2.747,0.59,5.285-1.994,6.925
		c-2.669,1.694-5.252,1.253-7.396-1.114c-0.582-0.642-1.005-1.426-1.501-2.146c-9.518-13.811-26.296-19.472-41.911-14.14
		c-15.175,5.182-25.549,20.127-24.729,35.626c0.912,17.211,12.448,31.041,29.1,34.542c7.938,1.669,15.722,1.146,22.669-3.611
		c8.792-6.021,18.44-8.586,29.404-7.195c-2.211-7.16-2.989-13.956-1.244-20.779c3.554-13.898,12.25-23.096,26.182-26.529
		c13.914-3.43,25.891,0.579,35.55,11.237c0.748,0.826,1.452,1.742,1.957,2.729c1.32,2.58,0.723,4.941-1.414,6.735
		c-2.165,1.817-4.632,1.777-6.906,0.145c-0.991-0.712-1.725-1.787-2.557-2.712c-7.488-8.331-19.958-10.458-29.79-5.079
		c-10.129,5.542-15.004,17.438-11.689,28.521c3.188,10.656,13.659,17.85,24.813,17.354c6.26-0.278,11.565-2.791,16.655-6.077
		c9.488-6.126,19.896-7.289,30.578-4.731c4.623,1.106,9.086,3.466,13.217,5.933c10.943,6.532,21.665,6.653,32.479-0.072
		c1.06-0.659,2.133-1.3,3.219-1.915c4.825-2.733,6.633-2.395,10.203,1.891C399.102,122.878,399.102,124.128,399.102,125.378z"/>
	<path fill="#0B3842" stroke="#FFFFFF" stroke-miterlimit="10" d="M399.102,185.37c-6.342,6.604-14.169,10.458-23.091,11.981
		c-10.847,1.853-20.817-0.613-29.91-6.773c-7.309-4.952-15.379-5.836-23.665-3.589c-3.53,0.957-6.805,3.045-10.03,4.906
		c-14.115,8.146-28.313,8.487-42.189-0.122c-8.084-5.016-16.401-7.345-25.633-4.872c-3.187,0.854-6.234,2.545-9.084,4.282
		c-14.718,8.971-29.496,9.359-44.147,0.18c-11.747-7.361-23.021-7.178-34.762,0.158c-14.215,8.882-28.871,8.901-43.098-0.041
		c-7.974-5.013-16.283-7.004-25.328-4.521c-3.415,0.937-6.615,2.879-9.715,4.701c-14.315,8.416-28.551,8.526-42.908,0.099
		c-3.208-1.883-6.639-3.411-10.048-4.921c-3.307-1.464-4.912-4.084-3.998-7.035c0.987-3.188,4.008-4.879,7.431-3.587
		c3.827,1.444,7.67,3.07,11.128,5.224c11.216,6.986,22.243,7.086,33.447,0.062c15.027-9.423,30.113-9.335,45.121,0.088
		c10.925,6.861,21.803,6.921,32.748,0.044c15.135-9.508,30.313-9.531,45.455-0.009c10.94,6.882,21.812,6.82,32.743-0.049
		c15.154-9.521,30.327-9.396,45.457,0.105c10.8,6.782,21.595,6.822,32.409,0.022c15.264-9.597,30.525-9.601,45.794,0.018
		c10.801,6.805,21.617,6.726,32.42-0.025c0.952-0.595,1.927-1.157,2.899-1.718c5.139-2.965,6.843-2.697,10.555,1.644
		C399.102,182.871,399.102,184.12,399.102,185.37z"/>
	<path fill="#0B3842" stroke="#FFFFFF" stroke-miterlimit="10" d="M15.149,90.882c0.977-3.328,1.664-6.774,2.982-9.962
		c6.007-14.522,16.839-23.497,32.337-25.873c16.286-2.497,29.656,3.29,39.859,16.269c0.231,0.294,0.438,0.608,0.645,0.92
		c2.225,3.362,1.853,6.652-0.966,8.565c-2.727,1.851-5.751,1.212-8.091-1.973c-4.449-6.057-10.138-10.217-17.455-12.145
		c-17.223-4.538-34.348,6.608-37.605,24.523c-3.072,16.891,9.452,33.247,26.706,35.124c7.438,0.809,14.097-0.893,20.228-5.047
		c9.665-6.548,20.322-8.103,31.502-5.591c3.937,0.884,7.607,2.989,11.369,4.607c4.548,1.958,9.017,4.106,13.609,5.952
		c3.013,1.211,4.714,3.648,4.117,6.664c-0.599,3.023-3.587,5.298-6.798,4.217c-5.27-1.774-10.6-3.748-15.366-6.554
		c-6.45-3.795-13.214-5.809-20.383-4.299c-4.866,1.024-9.634,3.286-13.997,5.78c-13.276,7.585-26.687,7.707-40.064,0.96
		c-12.108-6.107-19.313-16.228-21.931-29.568c-0.139-0.709-0.46-1.382-0.697-2.072C15.149,97.881,15.149,94.382,15.149,90.882z"/>
	<path fill="#0B3842" stroke="#FFFFFF" stroke-miterlimit="10" d="M134.717,168.421c-8.815-0.364-16.423-3.564-23.563-8.244
		c-7.282-4.772-15.275-5.354-23.391-3.117c-3.41,0.938-6.55,3.014-9.671,4.817c-14.109,8.156-28.148,8.18-42.278,0.033
		c-3.333-1.921-6.855-3.533-10.368-5.116c-3.283-1.479-4.822-4.121-3.845-7.104c1.048-3.2,3.991-4.813,7.476-3.447
		c4.156,1.628,8.254,3.538,12.1,5.798c10.577,6.214,21.082,6.472,31.476-0.088c15.509-9.785,30.979-10.046,46.438-0.12
		c8.027,5.154,16.487,5.967,25.478,3.362c3.683-1.066,6.682,0.224,7.69,3.221c1.098,3.262-0.499,6.362-4.387,7.396
		C143.56,166.959,139.107,167.574,134.717,168.421z"/>
</g>
</svg>
